<svg xmlns="http://www.w3.org/2000/svg" viewBox="0 0 400 320" role="img" aria-label="Varal com camiseta, toalha e meia limpas">
  <ellipse cx="200" cy="300" rx="170" ry="10" fill="#16324F" fill-opacity=".08"/>
  <path d="M30 300V56M370 300V56" stroke="#9AAFC2" stroke-width="10" stroke-linecap="round"/>
  <path d="M30 70q170 80 340 0" stroke="#16324F" stroke-width="3" fill="none"/>
  <path d="M78 90l22-6q20 14 40 0l22 6 20 28-18 12-8-10v84H84v-84l-8 10-18-12z" fill="#19A7A8"/>
  <path d="M100 84q20 14 40 0" stroke="#0F7F83" stroke-width="5" fill="none" stroke-linecap="round"/>
  <rect x="104" y="150" width="32" height="8" rx="4" fill="#fff" fill-opacity=".45"/>
  <rect x="200" y="90" width="62" height="124" rx="6" fill="#FFC94A"/>
  <rect x="200" y="182" width="62" height="8" fill="#F28C3A"/>
  <rect x="200" y="196" width="62" height="4" fill="#F28C3A"/>
  <path d="M300 84h28v58q0 10 8 16l14 10q10 10 0 20-8 6-18 0l-28-22q-8-6-8-18V84z" fill="#E9607A"/>
  <rect x="296" y="84" width="36" height="12" rx="4" fill="#C94862"/>
  <g fill="#F28C3A">
    <rect x="92" y="76" width="8" height="18" rx="3"/><rect x="140" y="80" width="8" height="18" rx="3"/>
    <rect x="206" y="82" width="8" height="18" rx="3"/><rect x="248" y="81" width="8" height="18" rx="3"/>
    <rect x="310" y="74" width="8" height="18" rx="3"/>
  </g>
  <g fill="#fff" fill-opacity=".8" stroke="#9ADBD8" stroke-width="3">
    <circle cx="190" cy="40" r="10"/><circle cx="60" cy="140" r="7"/><circle cx="350" cy="230" r="8"/>
  </g>
</svg>
